<svg aria-hidden="true" style="position:absolute;width:0;height:0;overflow:hidden" xmlns="http://www.w3.org/2000/svg">
  <defs>
    <symbol id="logo" viewBox="0 0 107 32">
      <path fill="#ff6b0a" style="fill:var(--color1, #ff6b0a)" d="M106.667 0v32H59.536V0h47.131zM74.42 8.811v13.927l.001.044a.842.842 0 0 1-.001.087c-.007.08.015.128.107.115a.485.485 0 0 1 .066-.001l.033.001h3.582c.075.001.112.001.129-.017s.016-.051.014-.116l-.001-.078V8.83l-.001-.033a.485.485 0 0 1 .001-.066c.008-.082-.02-.125-.109-.115-.018.002-.036.001-.054.001l-.028-.001h-3.55l-.062-.001c-.065-.001-.098-.001-.114.015s-.016.049-.015.116l.001.064zm19.579-.194h-5.863c-1.954 0-3.908 0-5.86-.002h-.133c-.066-.003-.089.028-.084.089a.486.486 0 0 1 0 .054v3.398c0 .072-.001.107.017.124s.051.017.118.016H85.923c.12 0 .18 0 .209.03s.029.087.029.2v10.335c-.001.059-.001.09.014.106.017.018.052.017.127.017h3.571c.111 0 .166 0 .193-.028s.027-.08.027-.186V12.488l-.001-.059c-.001-.063-.001-.097.015-.114.018-.019.055-.018.133-.018h3.798c.162 0 .162 0 .164-.159V8.759c.001-.072.001-.108-.016-.126s-.053-.017-.123-.016L94 8.618z"/>
      <path fill="#010101" style="fill:var(--color2, #010101)" d="m47.132 0 12.403 16-12.403 16H0V0h47.132zm-26.38 13.662.215.174a.371.371 0 0 0 .106-.107.256.256 0 0 1 .02-.026c.254-.302.507-.606.76-.91.507-.606 1.012-1.212 1.518-1.82.101-.122.097-.177-.018-.276a12.617 12.617 0 0 0-.277-.233c-.803-.657-1.685-1.17-2.684-1.467a9.43 9.43 0 0 0-2.043-.353c-.905-.061-1.802-.031-2.691.174-3.112.716-5.434 3.292-5.707 6.594a7.795 7.795 0 0 0 .225 2.638c.519 1.96 1.645 3.461 3.434 4.45.975.539 2.03.823 3.14.912.94.076 1.87.018 2.788-.189 1.553-.35 2.925-1.056 4.146-2.067a.333.333 0 0 0 .137-.289c-.004-1.572-.004-3.145-.003-4.717v-1.179a.66.66 0 0 0-.003-.062c-.003-.046-.006-.092.006-.134.015-.049-.012-.077-.037-.104-.021-.022-.042-.044-.039-.077.007-.054-.03-.062-.073-.062h-6.556l-.038.001c-.026.001-.052.002-.077-.001-.066-.007-.087.026-.083.087a.657.657 0 0 1 .001.077l-.001.038V17.839l-.001.074c-.001.063-.002.096.014.112s.052.017.125.016H19.772c.072-.001.107-.001.124.016.016.016.015.048.014.11l-.001.078v.679c0 .308 0 .311-.279.445-.818.391-1.681.503-2.573.391-.991-.123-1.784-.591-2.365-1.401-.378-.527-.585-1.122-.662-1.763-.097-.818.002-1.605.373-2.348.448-.892 1.125-1.533 2.098-1.827.682-.207 1.373-.153 2.056-.003.619.135 1.159.437 1.657.816.182.138.359.281.539.427zm18.346-2.98c-1.528-1.39-3.348-2.052-5.229-2.066-.869.002-1.518.072-2.207.251-1.998.521-3.563 1.638-4.602 3.422-1.067 1.83-1.283 3.793-.687 5.812.667 2.257 2.089 3.9 4.29 4.815 1.69.701 3.44.795 5.206.332 2.051-.537 3.624-1.725 4.654-3.578.869-1.562 1.102-3.238.778-4.987-.291-1.572-1.017-2.919-2.203-4zm-8.437 3.528c.666-1.227 1.729-1.815 2.762-1.838 2.094-.005 3.464 1.173 3.837 2.806.226.984.125 1.94-.358 2.834-.57 1.05-1.458 1.661-2.654 1.797-1.156.133-2.165-.194-2.99-1.025a3.579 3.579 0 0 1-.983-1.914c-.172-.928-.066-1.827.386-2.66z"/>
    </symbol>
    <symbol id="javascript" viewBox="0 0 32 32">
      <path fill="#f7df1e" style="fill:var(--color3, #f7df1e)" d="M0 0h32v32H0V0z"/>
      <path style="fill:var(--color4, #000)" d="m8.414 26.741 2.449-1.482c.473.838.902 1.546 1.933 1.546.988 0 1.611-.387 1.611-1.89V14.69h3.007v10.267c0 3.115-1.826 4.532-4.489 4.532-2.406 0-3.802-1.246-4.511-2.75zm10.634-.322 2.448-1.418c.645 1.053 1.482 1.826 2.964 1.826 1.246 0 2.041-.623 2.041-1.482 0-1.031-.816-1.396-2.191-1.997l-.752-.323c-2.17-.923-3.609-2.083-3.609-4.532 0-2.256 1.718-3.974 4.404-3.974 1.912 0 3.287.666 4.274 2.406l-2.341 1.504c-.516-.924-1.074-1.289-1.933-1.289-.881 0-1.439.558-1.439 1.289 0 .902.558 1.268 1.847 1.826l.752.322c2.556 1.096 3.995 2.212 3.995 4.726 0 2.707-2.127 4.189-4.983 4.189-2.792 0-4.597-1.332-5.477-3.072z"/>
    </symbol>
   <symbol id="icon-decor-bg-hero-mob" viewBox="0 0 15 32">
<path fill="#00b068" style="fill: var(--color1, #00b068)" d="M13.089 27.511h-0.325c-0.025 0-0.045-0.020-0.045-0.045v-0.325c0-0.025 0.020-0.045 0.045-0.045h0.325c0.025 0 0.045 0.020 0.045 0.045v0.325c0 0.025-0.020 0.045-0.045 0.045z"></path>
<path fill="#00b068" style="fill: var(--color1, #00b068)" d="M11.736 22.371h-0.325c-0.025 0-0.045-0.020-0.045-0.045v-0.325c0-0.025 0.020-0.045 0.045-0.045h0.325c0.025 0 0.045 0.020 0.045 0.045v0.325c0 0.025-0.020 0.045-0.045 0.045z"></path>
<path fill="#00b068" style="fill: var(--color1, #00b068)" d="M9.996 24.927h-0.117c-0.025 0-0.045-0.020-0.045-0.045v-0.117c0-0.025 0.020-0.045 0.045-0.045h0.117c0.025 0 0.045 0.020 0.045 0.045v0.117c0 0.025-0.020 0.045-0.045 0.045z"></path>
<path fill="#00b068" style="fill: var(--color1, #00b068)" d="M14.409 25.758h-0.117c-0.025 0-0.045-0.020-0.045-0.045v-0.117c0-0.025 0.020-0.045 0.045-0.045h0.117c0.025 0 0.045 0.020 0.045 0.045v0.117c0 0.025-0.020 0.045-0.045 0.045z"></path>
<path fill="#00b068" style="fill: var(--color1, #00b068)" d="M8.725 27.921h-0.325c-0.025 0-0.045-0.020-0.045-0.045v-0.325c0-0.025 0.020-0.045 0.045-0.045h0.325c0.025 0 0.045 0.020 0.045 0.045v0.325c0 0.025-0.020 0.045-0.045 0.045z"></path>
<path fill="#00b068" style="fill: var(--color1, #00b068)" d="M6.909 23.984h-0.117c-0.025 0-0.045-0.020-0.045-0.045v-0.117c0-0.025 0.020-0.045 0.045-0.045h0.117c0.025 0 0.045 0.020 0.045 0.045v0.117c0 0.025-0.020 0.045-0.045 0.045z"></path>
<path fill="#00b068" style="fill: var(--color1, #00b068)" d="M11.825 6.007h-0.371c-0.025 0-0.045-0.020-0.045-0.045v-0.371c0-0.025 0.020-0.045 0.045-0.045h0.371c0.025 0 0.045 0.020 0.045 0.045v0.371c0 0.025-0.020 0.045-0.045 0.045z"></path>
<path fill="#00b068" style="fill: var(--color1, #00b068)" d="M9.985 0.962h-0.371c-0.025 0-0.045-0.020-0.045-0.045v-0.371c0-0.025 0.020-0.045 0.045-0.045h0.371c0.025 0 0.045 0.020 0.045 0.045v0.371c0 0.025-0.020 0.045-0.045 0.045z"></path>
<path fill="#00b068" style="fill: var(--color1, #00b068)" d="M13.985 7.875h-0.602c-0.025 0-0.045-0.020-0.045-0.045v-0.602c0-0.025 0.020-0.045 0.045-0.045h0.602c0.025 0 0.045 0.020 0.045 0.045v0.602c0 0.025-0.020 0.045-0.045 0.045z"></path>
<path fill="#00b068" style="fill: var(--color1, #00b068)" d="M8.349 3.595h-0.14c-0.025 0-0.045-0.020-0.045-0.045v-0.14c0-0.025 0.020-0.045 0.045-0.045h0.14c0.025 0 0.045 0.020 0.045 0.045v0.14c0 0.025-0.020 0.045-0.045 0.045z"></path>
<path fill="#00b068" style="fill: var(--color1, #00b068)" d="M14.758 4.516h-0.14c-0.025 0-0.045-0.020-0.045-0.045v-0.14c0-0.025 0.020-0.045 0.045-0.045h0.14c0.025 0 0.045 0.020 0.045 0.045v0.14c0 0.025-0.020 0.045-0.045 0.045z"></path>
<path fill="#00b068" style="fill: var(--color1, #00b068)" d="M4.14 11.11h-0.14c-0.025 0-0.045-0.020-0.045-0.045v-0.14c0-0.025 0.020-0.045 0.045-0.045h0.14c0.025 0 0.045 0.020 0.045 0.045v0.14c0 0.025-0.020 0.045-0.045 0.045z"></path>
<path fill="#00b068" style="fill: var(--color1, #00b068)" d="M6.94 6.916h-0.371c-0.025 0-0.045-0.020-0.045-0.045v-0.371c0-0.025 0.020-0.045 0.045-0.045h0.371c0.025 0 0.045 0.020 0.045 0.045v0.371c0 0.025-0.020 0.045-0.045 0.045z"></path>
<path fill="#00b068" style="fill: var(--color1, #00b068)" d="M5.076 2.549h-0.14c-0.025 0-0.045-0.020-0.045-0.045v-0.14c0-0.025 0.020-0.045 0.045-0.045h0.14c0.025 0 0.045 0.020 0.045 0.045v0.14c0 0.025-0.020 0.045-0.045 0.045z"></path>
</symbol>
<symbol id="icon-decor-bg-hero-tab" viewBox="0 0 25 32">
<path fill="#00b068" style="fill: var(--color1, #00b068)" d="M22.594 5.227h-0.29c-0.020 0-0.036-0.016-0.036-0.036v-0.29c0-0.020 0.016-0.036 0.036-0.036h0.29c0.020 0 0.036 0.016 0.036 0.036v0.29c0 0.020-0.016 0.036-0.036 0.036z"></path>
<path fill="#00b068" style="fill: var(--color1, #00b068)" d="M19.451 0.574h-0.29c-0.020 0-0.036-0.016-0.036-0.036v-0.29c0-0.020 0.016-0.036 0.036-0.036h0.29c0.020 0 0.036 0.016 0.036 0.036v0.29c0 0.020-0.016 0.036-0.036 0.036z"></path>
<path fill="#00b068" style="fill: var(--color1, #00b068)" d="M20.090 9.385h-0.47c-0.020 0-0.036-0.016-0.036-0.036v-0.47c0-0.020 0.016-0.036 0.036-0.036h0.47c0.020 0 0.036 0.016 0.036 0.036v0.47c0 0.020-0.016 0.036-0.036 0.036z"></path>
<path fill="#00b068" style="fill: var(--color1, #00b068)" d="M24.139 6.33h-0.47c-0.020 0-0.036-0.016-0.036-0.036v-0.47c0-0.020 0.016-0.036 0.036-0.036h0.47c0.020 0 0.036 0.016 0.036 0.036v0.47c0 0.020-0.016 0.036-0.036 0.036z"></path>
<path fill="#00b068" style="fill: var(--color1, #00b068)" d="M19.913 2.986h-0.109c-0.020 0-0.036-0.016-0.036-0.036v-0.109c0-0.020 0.016-0.036 0.036-0.036h0.109c0.020 0 0.036 0.016 0.036 0.036v0.109c0 0.020-0.016 0.036-0.036 0.036z"></path>
<path fill="#00b068" style="fill: var(--color1, #00b068)" d="M24.921 3.707h-0.109c-0.020 0-0.036-0.016-0.036-0.036v-0.109c0-0.020 0.016-0.036 0.036-0.036h0.109c0.020 0 0.036 0.016 0.036 0.036v0.109c0 0.020-0.016 0.036-0.036 0.036z"></path>
<path fill="#00b068" style="fill: var(--color1, #00b068)" d="M16.624 8.859h-0.109c-0.020 0-0.036-0.016-0.036-0.036v-0.109c0-0.020 0.016-0.036 0.036-0.036h0.109c0.020 0 0.036 0.016 0.036 0.036v0.109c0 0.020-0.016 0.036-0.036 0.036z"></path>
<path fill="#00b068" style="fill: var(--color1, #00b068)" d="M12.611 9.96h-0.109c-0.020 0-0.036-0.016-0.036-0.036v-0.109c0-0.020 0.016-0.036 0.036-0.036h0.109c0.020 0 0.036 0.016 0.036 0.036v0.109c0 0.020-0.016 0.036-0.036 0.036z"></path>
<path fill="#00b068" style="fill: var(--color1, #00b068)" d="M18.812 5.582h-0.29c-0.020 0-0.036-0.016-0.036-0.036v-0.29c0-0.020 0.016-0.036 0.036-0.036h0.29c0.020 0 0.036 0.016 0.036 0.036v0.29c0 0.020-0.016 0.036-0.036 0.036z"></path>
<path fill="#00b068" style="fill: var(--color1, #00b068)" d="M17.356 2.169h-0.109c-0.020 0-0.036-0.016-0.036-0.036v-0.109c0-0.020 0.016-0.036 0.036-0.036h0.109c0.020 0 0.036 0.016 0.036 0.036v0.109c0 0.020-0.016 0.036-0.036 0.036z"></path>
<path fill="#00b068" style="fill: var(--color1, #00b068)" d="M16.769 25.4h-0.29c-0.020 0-0.036-0.016-0.036-0.036v-0.29c0-0.020 0.016-0.036 0.036-0.036h0.29c0.020 0 0.036 0.016 0.036 0.036v0.29c0 0.020-0.016 0.036-0.036 0.036z"></path>
<path fill="#00b068" style="fill: var(--color1, #00b068)" d="M15.367 21.102h-0.29c-0.020 0-0.036-0.016-0.036-0.036v-0.29c0-0.020 0.016-0.036 0.036-0.036h0.29c0.020 0 0.036 0.016 0.036 0.036v0.29c0 0.020-0.016 0.036-0.036 0.036z"></path>
<path fill="#00b068" style="fill: var(--color1, #00b068)" d="M14.266 29.558h-0.47c-0.020 0-0.036-0.016-0.036-0.036v-0.47c0-0.020 0.016-0.036 0.036-0.036h0.47c0.020 0 0.036 0.016 0.036 0.036v0.47c0 0.020-0.016 0.036-0.036 0.036z"></path>
<path fill="#00b068" style="fill: var(--color1, #00b068)" d="M18.315 26.504h-0.47c-0.020 0-0.036-0.016-0.036-0.036v-0.47c0-0.020 0.016-0.036 0.036-0.036h0.47c0.020 0 0.036 0.016 0.036 0.036v0.47c0 0.020-0.016 0.036-0.036 0.036z"></path>
<path fill="#00b068" style="fill: var(--color1, #00b068)" d="M14.088 23.159h-0.109c-0.020 0-0.036-0.016-0.036-0.036v-0.109c0-0.020 0.016-0.036 0.036-0.036h0.109c0.020 0 0.036 0.016 0.036 0.036v0.109c0 0.020-0.016 0.036-0.036 0.036z"></path>
<path fill="#00b068" style="fill: var(--color1, #00b068)" d="M19.096 23.88h-0.109c-0.020 0-0.036-0.016-0.036-0.036v-0.109c0-0.020 0.016-0.036 0.036-0.036h0.109c0.020 0 0.036 0.016 0.036 0.036v0.109c0 0.020-0.016 0.036-0.036 0.036z"></path>
<path fill="#00b068" style="fill: var(--color1, #00b068)" d="M10.8 29.032h-0.109c-0.020 0-0.036-0.016-0.036-0.036v-0.109c0-0.020 0.016-0.036 0.036-0.036h0.109c0.020 0 0.036 0.016 0.036 0.036v0.109c0 0.020-0.016 0.036-0.036 0.036z"></path>
<path fill="#00b068" style="fill: var(--color1, #00b068)" d="M6.787 30.133h-0.109c-0.020 0-0.036-0.016-0.036-0.036v-0.109c0-0.020 0.016-0.036 0.036-0.036h0.109c0.020 0 0.036 0.016 0.036 0.036v0.109c0 0.020-0.016 0.036-0.036 0.036z"></path>
<path fill="#00b068" style="fill: var(--color1, #00b068)" d="M12.987 25.755h-0.29c-0.020 0-0.036-0.016-0.036-0.036v-0.29c0-0.020 0.016-0.036 0.036-0.036h0.29c0.020 0 0.036 0.016 0.036 0.036v0.29c0 0.020-0.016 0.036-0.036 0.036z"></path>
<path fill="#00b068" style="fill: var(--color1, #00b068)" d="M11.531 22.342h-0.109c-0.020 0-0.036-0.016-0.036-0.036v-0.109c0-0.020 0.016-0.036 0.036-0.036h0.109c0.020 0 0.036 0.016 0.036 0.036v0.109c0 0.020-0.016 0.036-0.036 0.036z"></path>
</symbol>
<symbol id="icon-decor-bg-about-tab" viewBox="0 0 42 32">
<path fill="#00b068" style="fill: var(--color1, #00b068)" d="M5.657 16.158h0.947c0.064 0 0.116 0.052 0.116 0.116v0.947c0 0.064-0.052 0.116-0.116 0.116h-0.947c-0.064 0-0.116-0.052-0.116-0.116v-0.947c0-0.064 0.052-0.116 0.116-0.116z"></path>
<path fill="#00b068" style="fill: var(--color1, #00b068)" d="M13.261 6.553h1.536c0.064 0 0.116 0.052 0.116 0.116v1.536c0 0.064-0.052 0.116-0.116 0.116h-1.536c-0.064 0-0.116-0.052-0.116-0.116v-1.536c0-0.064 0.052-0.116 0.116-0.116z"></path>
<path fill="#00b068" style="fill: var(--color1, #00b068)" d="M1.931 1.76h0.702c0.064 0 0.116 0.052 0.116 0.116v0.702c0 0.064-0.052 0.116-0.116 0.116h-0.702c-0.064 0-0.116-0.052-0.116-0.116v-0.702c0-0.064 0.052-0.116 0.116-0.116z"></path>
<path fill="#00b068" style="fill: var(--color1, #00b068)" d="M20.197 22.428h0.357c0.064 0 0.116 0.052 0.116 0.116v0.357c0 0.064-0.052 0.116-0.116 0.116h-0.357c-0.064 0-0.116-0.052-0.116-0.116v-0.357c0-0.064 0.052-0.116 0.116-0.116z"></path>
<path fill="#00b068" style="fill: var(--color1, #00b068)" d="M0.854 20.56h0.357c0.064 0 0.116 0.052 0.116 0.116v0.357c0 0.064-0.052 0.116-0.116 0.116h-0.357c-0.064 0-0.116-0.052-0.116-0.116v-0.357c0-0.064 0.052-0.116 0.116-0.116z"></path>
<path fill="#00b068" style="fill: var(--color1, #00b068)" d="M28.105 4.346h0.357c0.064 0 0.116 0.052 0.116 0.116v0.357c0 0.064-0.052 0.116-0.116 0.116h-0.357c-0.064 0-0.116-0.052-0.116-0.116v-0.357c0-0.064 0.052-0.116 0.116-0.116z"></path>
<path fill="#00b068" style="fill: var(--color1, #00b068)" d="M41.213 0.75h0.357c0.064 0 0.116 0.052 0.116 0.116v0.357c0 0.064-0.052 0.116-0.116 0.116h-0.357c-0.064 0-0.116-0.052-0.116-0.116v-0.357c0-0.064 0.052-0.116 0.116-0.116z"></path>
<path fill="#00b068" style="fill: var(--color1, #00b068)" d="M25.951 10.404c0-0.064 0.052-0.116 0.116-0.116h0.947c0.064 0 0.116 0.052 0.116 0.116v0.947c0 0.064-0.052 0.116-0.116 0.116h-0.947c-0.064 0-0.116-0.052-0.116-0.116 0-0 0-0 0-0v0-0.946z"></path>
<path fill="#00b068" style="fill: var(--color1, #00b068)" d="M35.005 28.164h0.357c0.064 0 0.116 0.052 0.116 0.116v0.357c0 0.064-0.052 0.116-0.116 0.116h-0.357c-0.064 0-0.116-0.052-0.116-0.116v-0.357c0-0.064 0.052-0.116 0.116-0.116z"></path>
</symbol>
<symbol id="icon-decor-bg-workT-tab" viewBox="0 0 41 32">
<path fill="#00b068" style="fill: var(--color1, #00b068)" d="M32.696 16.445h-0.918c-0.062 0-0.113-0.050-0.113-0.113v-0.918c0-0.062 0.050-0.113 0.113-0.113h0.918c0.062 0 0.113 0.050 0.113 0.113v0.918c0 0.062-0.050 0.113-0.113 0.113z"></path>
<path fill="#00b068" style="fill: var(--color1, #00b068)" d="M22.742 1.709h-0.918c-0.062 0-0.113-0.050-0.113-0.113v-0.918c0-0.062 0.050-0.113 0.113-0.113h0.918c0.062 0 0.113 0.050 0.113 0.113v0.918c0 0.062-0.050 0.113-0.113 0.113z"></path>
<path fill="#00b068" style="fill: var(--color1, #00b068)" d="M24.766 29.616h-1.489c-0.062 0-0.113-0.050-0.113-0.113v-1.489c0-0.062 0.050-0.113 0.113-0.113h1.489c0.062 0 0.113 0.050 0.113 0.113v1.489c0 0.062-0.050 0.113-0.113 0.113z"></path>
<path fill="#00b068" style="fill: var(--color1, #00b068)" d="M37.59 19.942h-1.489c-0.062 0-0.113-0.050-0.113-0.113v-1.489c0-0.062 0.050-0.113 0.113-0.113h1.489c0.062 0 0.113 0.050 0.113 0.113v1.489c0 0.062-0.050 0.113-0.113 0.113z"></path>
<path fill="#00b068" style="fill: var(--color1, #00b068)" d="M24.204 9.349h-0.346c-0.062 0-0.113-0.050-0.113-0.113v-0.346c0-0.062 0.050-0.113 0.113-0.113h0.346c0.062 0 0.113 0.050 0.113 0.113v0.346c0 0.062-0.050 0.113-0.113 0.113z"></path>
<path fill="#00b068" style="fill: var(--color1, #00b068)" d="M40.065 11.631h-0.346c-0.062 0-0.113-0.050-0.113-0.113v-0.346c0-0.062 0.050-0.113 0.113-0.113h0.346c0.062 0 0.113 0.050 0.113 0.113v0.346c0 0.062-0.050 0.113-0.113 0.113z"></path>
<path fill="#00b068" style="fill: var(--color1, #00b068)" d="M13.788 27.949h-0.346c-0.062 0-0.113-0.050-0.113-0.113v-0.346c0-0.062 0.050-0.113 0.113-0.113h0.346c0.062 0 0.113 0.050 0.113 0.113v0.346c0 0.062-0.050 0.113-0.113 0.113z"></path>
<path fill="#00b068" style="fill: var(--color1, #00b068)" d="M1.077 31.436h-0.346c-0.062 0-0.113-0.050-0.113-0.113v-0.346c0-0.062 0.050-0.113 0.113-0.113h0.346c0.062 0 0.113 0.050 0.113 0.113v0.346c0 0.062-0.050 0.113-0.113 0.113z"></path>
<path fill="#00b068" style="fill: var(--color1, #00b068)" d="M20.717 17.57h-0.918c-0.062 0-0.113-0.050-0.113-0.113v-0.918c0-0.062 0.050-0.113 0.113-0.113h0.918c0.062 0 0.113 0.050 0.113 0.113v0.918c0 0.062-0.050 0.113-0.113 0.113z"></path>
<path fill="#00b068" style="fill: var(--color1, #00b068)" d="M16.105 6.762h-0.346c-0.062 0-0.113-0.050-0.113-0.113v-0.346c0-0.062 0.050-0.113 0.113-0.113h0.346c0.062 0 0.113 0.050 0.113 0.113v0.346c0 0.062-0.050 0.113-0.113 0.113z"></path>
</symbol>
<symbol id="icon-decor-bg-hero-desk" viewBox="0 0 50 32">
<path fill="#00b068" style="fill: var(--color1, #00b068)" d="M20.4 25.292h-0.338c-0.023 0-0.041-0.019-0.041-0.041v-0.338c0-0.023 0.019-0.041 0.041-0.041h0.338c0.023 0 0.041 0.019 0.041 0.041v0.338c0 0.023-0.019 0.041-0.041 0.041z"></path>
<path fill="#00b068" style="fill: var(--color1, #00b068)" d="M18.764 20.276h-0.338c-0.023 0-0.041-0.019-0.041-0.041v-0.338c0-0.023 0.019-0.041 0.041-0.041h0.338c0.023 0 0.041 0.019 0.041 0.041v0.338c0 0.023-0.019 0.041-0.041 0.041z"></path>
<path fill="#00b068" style="fill: var(--color1, #00b068)" d="M17.479 30.145h-0.549c-0.023 0-0.041-0.019-0.041-0.041v-0.549c0-0.023 0.019-0.041 0.041-0.041h0.549c0.023 0 0.041 0.019 0.041 0.041v0.549c0 0.023-0.019 0.041-0.041 0.041z"></path>
<path fill="#00b068" style="fill: var(--color1, #00b068)" d="M22.204 26.58h-0.549c-0.023 0-0.041-0.019-0.041-0.041v-0.549c0-0.023 0.019-0.041 0.041-0.041h0.549c0.023 0 0.041 0.019 0.041 0.041v0.549c0 0.023-0.019 0.041-0.041 0.041z"></path>
<path fill="#00b068" style="fill: var(--color1, #00b068)" d="M17.271 22.677h-0.128c-0.023 0-0.041-0.019-0.041-0.041v-0.128c0-0.023 0.019-0.041 0.041-0.041h0.128c0.023 0 0.041 0.019 0.041 0.041v0.128c0 0.023-0.019 0.041-0.041 0.041z"></path>
<path fill="#00b068" style="fill: var(--color1, #00b068)" d="M23.116 23.518h-0.128c-0.023 0-0.041-0.019-0.041-0.041v-0.128c0-0.023 0.019-0.041 0.041-0.041h0.128c0.023 0 0.041 0.019 0.041 0.041v0.128c0 0.023-0.019 0.041-0.041 0.041z"></path>
<path fill="#00b068" style="fill: var(--color1, #00b068)" d="M13.433 29.531h-0.128c-0.023 0-0.041-0.019-0.041-0.041v-0.128c0-0.023 0.019-0.041 0.041-0.041h0.128c0.023 0 0.041 0.019 0.041 0.041v0.128c0 0.023-0.019 0.041-0.041 0.041z"></path>
<path fill="#00b068" style="fill: var(--color1, #00b068)" d="M8.749 30.816h-0.128c-0.023 0-0.041-0.019-0.041-0.041v-0.128c0-0.023 0.019-0.041 0.041-0.041h0.128c0.023 0 0.041 0.019 0.041 0.041v0.128c0 0.023-0.019 0.041-0.041 0.041z"></path>
<path fill="#00b068" style="fill: var(--color1, #00b068)" d="M15.986 25.706h-0.338c-0.023 0-0.041-0.019-0.041-0.041v-0.338c0-0.023 0.019-0.041 0.041-0.041h0.338c0.023 0 0.041 0.019 0.041 0.041v0.338c0 0.023-0.019 0.041-0.041 0.041z"></path>
<path fill="#00b068" style="fill: var(--color1, #00b068)" d="M14.287 21.724h-0.128c-0.023 0-0.041-0.019-0.041-0.041v-0.128c0-0.023 0.019-0.041 0.041-0.041h0.128c0.023 0 0.041 0.019 0.041 0.041v0.128c0 0.023-0.019 0.041-0.041 0.041z"></path>
<path fill="#00b068" style="fill: var(--color1, #00b068)" d="M47.592 5.976h-0.338c-0.023 0-0.041-0.019-0.041-0.041v-0.338c0-0.023 0.019-0.041 0.041-0.041h0.338c0.023 0 0.041 0.019 0.041 0.041v0.338c0 0.023-0.019 0.041-0.041 0.041z"></path>
<path fill="#00b068" style="fill: var(--color1, #00b068)" d="M43.924 0.545h-0.338c-0.023 0-0.041-0.019-0.041-0.041v-0.338c0-0.023 0.019-0.041 0.041-0.041h0.338c0.023 0 0.041 0.019 0.041 0.041v0.338c0 0.023-0.019 0.041-0.041 0.041z"></path>
<path fill="#00b068" style="fill: var(--color1, #00b068)" d="M44.67 10.829h-0.549c-0.023 0-0.041-0.019-0.041-0.041v-0.549c0-0.023 0.019-0.041 0.041-0.041h0.549c0.023 0 0.041 0.019 0.041 0.041v0.549c0 0.023-0.019 0.041-0.041 0.041z"></path>
<path fill="#00b068" style="fill: var(--color1, #00b068)" d="M49.396 7.264h-0.549c-0.023 0-0.041-0.019-0.041-0.041v-0.549c0-0.023 0.019-0.041 0.041-0.041h0.549c0.023 0 0.041 0.019 0.041 0.041v0.549c0 0.023-0.019 0.041-0.041 0.041z"></path>
<path fill="#00b068" style="fill: var(--color1, #00b068)" d="M44.463 3.361h-0.128c-0.023 0-0.041-0.019-0.041-0.041v-0.128c0-0.023 0.019-0.041 0.041-0.041h0.128c0.023 0 0.041 0.019 0.041 0.041v0.128c0 0.023-0.019 0.041-0.041 0.041z"></path>
<path fill="#00b068" style="fill: var(--color1, #00b068)" d="M50.308 4.202h-0.128c-0.023 0-0.041-0.019-0.041-0.041v-0.128c0-0.023 0.019-0.041 0.041-0.041h0.128c0.023 0 0.041 0.019 0.041 0.041v0.128c0 0.023-0.019 0.041-0.041 0.041z"></path>
<path fill="#00b068" style="fill: var(--color1, #00b068)" d="M40.625 10.215h-0.128c-0.023 0-0.041-0.019-0.041-0.041v-0.128c0-0.023 0.019-0.041 0.041-0.041h0.128c0.023 0 0.041 0.019 0.041 0.041v0.128c0 0.023-0.019 0.041-0.041 0.041z"></path>
<path fill="#00b068" style="fill: var(--color1, #00b068)" d="M35.941 11.5h-0.128c-0.023 0-0.041-0.019-0.041-0.041v-0.128c0-0.023 0.019-0.041 0.041-0.041h0.128c0.023 0 0.041 0.019 0.041 0.041v0.128c0 0.023-0.019 0.041-0.041 0.041z"></path>
<path fill="#00b068" style="fill: var(--color1, #00b068)" d="M43.178 6.39h-0.338c-0.023 0-0.041-0.019-0.041-0.041v-0.338c0-0.023 0.019-0.041 0.041-0.041h0.338c0.023 0 0.041 0.019 0.041 0.041v0.338c0 0.023-0.019 0.041-0.041 0.041z"></path>
<path fill="#00b068" style="fill: var(--color1, #00b068)" d="M41.479 2.407h-0.128c-0.023 0-0.041-0.019-0.041-0.041v-0.128c0-0.023 0.019-0.041 0.041-0.041h0.128c0.023 0 0.041 0.019 0.041 0.041v0.128c0 0.023-0.019 0.041-0.041 0.041z"></path>
</symbol>
<symbol id="icon-decor-bg-about-desk" viewBox="0 0 42 32">
<path fill="#00b068" style="fill: var(--color1, #00b068)" d="M5.675 16.15h0.947c0.064 0 0.116 0.052 0.116 0.116v0.947c0 0.064-0.052 0.116-0.116 0.116h-0.947c-0.064 0-0.116-0.052-0.116-0.116v-0.947c0-0.064 0.052-0.116 0.116-0.116z"></path>
<path fill="#00b068" style="fill: var(--color1, #00b068)" d="M13.282 6.541h1.537c0.064 0 0.116 0.052 0.116 0.116v1.537c0 0.064-0.052 0.116-0.116 0.116h-1.537c-0.064 0-0.116-0.052-0.116-0.116v-1.537c0-0.064 0.052-0.116 0.116-0.116z"></path>
<path fill="#00b068" style="fill: var(--color1, #00b068)" d="M1.948 1.746h0.702c0.064 0 0.116 0.052 0.116 0.116v0.702c0 0.064-0.052 0.116-0.116 0.116h-0.702c-0.064 0-0.116-0.052-0.116-0.116v-0.702c0-0.064 0.052-0.116 0.116-0.116z"></path>
<path fill="#00b068" style="fill: var(--color1, #00b068)" d="M20.223 22.423h0.358c0.064 0 0.116 0.052 0.116 0.116v0.358c0 0.064-0.052 0.116-0.116 0.116h-0.358c-0.064 0-0.116-0.052-0.116-0.116v-0.358c0-0.064 0.052-0.116 0.116-0.116z"></path>
<path fill="#00b068" style="fill: var(--color1, #00b068)" d="M0.87 20.555h0.357c0.064 0 0.116 0.052 0.116 0.116v0.358c0 0.064-0.052 0.116-0.116 0.116h-0.357c-0.064 0-0.116-0.052-0.116-0.116v-0.358c0-0.064 0.052-0.116 0.116-0.116z"></path>
<path fill="#00b068" style="fill: var(--color1, #00b068)" d="M28.134 4.332h0.358c0.064 0 0.116 0.052 0.116 0.116v0.357c0 0.064-0.052 0.116-0.116 0.116h-0.358c-0.064 0-0.116-0.052-0.116-0.116v-0.357c0-0.064 0.052-0.116 0.116-0.116z"></path>
<path fill="#00b068" style="fill: var(--color1, #00b068)" d="M41.248 0.735h0.358c0.064 0 0.116 0.052 0.116 0.116v0.358c0 0.064-0.052 0.116-0.116 0.116h-0.358c-0.064 0-0.116-0.052-0.116-0.116v-0.357c0-0.064 0.052-0.116 0.116-0.116z"></path>
<path fill="#00b068" style="fill: var(--color1, #00b068)" d="M25.979 10.394c0-0.064 0.052-0.116 0.116-0.116h0.947c0.064 0 0.116 0.052 0.116 0.116v0.947c0 0.064-0.052 0.116-0.116 0.116h-0.947c-0.064 0-0.116-0.052-0.116-0.116v0-0.947z"></path>
<path fill="#00b068" style="fill: var(--color1, #00b068)" d="M35.037 28.162h0.358c0.064 0 0.116 0.052 0.116 0.116v0.358c0 0.064-0.052 0.116-0.116 0.116h-0.358c-0.064 0-0.116-0.052-0.116-0.116v-0.358c0-0.064 0.052-0.116 0.116-0.116z"></path>
</symbol>
<symbol id="icon-decor-bg-benefits-desk" viewBox="0 0 41 32">
<path fill="#00b068" style="fill: var(--color1, #00b068)" d="M33.124 16.205h-0.932c-0.063 0-0.114-0.051-0.114-0.114v-0.932c0-0.063 0.051-0.114 0.114-0.114h0.932c0.063 0 0.114 0.051 0.114 0.114v0.932c0 0.063-0.051 0.114-0.114 0.114z"></path>
<path fill="#00b068" style="fill: var(--color1, #00b068)" d="M28.342 3.087h-0.932c-0.063 0-0.114-0.051-0.114-0.114v-0.932c0-0.063 0.051-0.114 0.114-0.114h0.932c0.063 0 0.114 0.051 0.114 0.114v0.932c0 0.063-0.051 0.114-0.114 0.114z"></path>
<path fill="#00b068" style="fill: var(--color1, #00b068)" d="M25.023 26.294h-0.851c-0.063 0-0.114-0.051-0.114-0.114v-0.851c0-0.063 0.051-0.114 0.114-0.114h0.851c0.063 0 0.114 0.051 0.114 0.114v0.851c0 0.063-0.051 0.114-0.114 0.114z"></path>
<path fill="#00b068" style="fill: var(--color1, #00b068)" d="M38.090 19.753h-1.511c-0.063 0-0.114-0.051-0.114-0.114v-1.511c0-0.063 0.051-0.114 0.114-0.114h1.511c0.063 0 0.114 0.051 0.114 0.114v1.511c0 0.063-0.051 0.114-0.114 0.114z"></path>
<path fill="#00b068" style="fill: var(--color1, #00b068)" d="M24.507 9.005h-0.352c-0.063 0-0.114-0.051-0.114-0.114v-0.352c0-0.063 0.051-0.114 0.114-0.114h0.352c0.063 0 0.114 0.051 0.114 0.114v0.352c0 0.063-0.051 0.114-0.114 0.114z"></path>
<path fill="#00b068" style="fill: var(--color1, #00b068)" d="M40.602 11.32h-0.352c-0.063 0-0.114-0.051-0.114-0.114v-0.352c0-0.063 0.051-0.114 0.114-0.114h0.352c0.063 0 0.114 0.051 0.114 0.114v0.352c0 0.063-0.051 0.114-0.114 0.114z"></path>
<path fill="#00b068" style="fill: var(--color1, #00b068)" d="M11.647 24.715h-0.352c-0.063 0-0.114-0.051-0.114-0.114v-0.352c0-0.063 0.051-0.114 0.114-0.114h0.352c0.063 0 0.114 0.051 0.114 0.114v0.352c0 0.063-0.051 0.114-0.114 0.114z"></path>
<path fill="#00b068" style="fill: var(--color1, #00b068)" d="M1.039 31.417h-0.352c-0.063 0-0.114-0.051-0.114-0.114v-0.352c0-0.063 0.051-0.114 0.114-0.114h0.352c0.063 0 0.114 0.051 0.114 0.114v0.352c0 0.063-0.051 0.114-0.114 0.114z"></path>
<path fill="#00b068" style="fill: var(--color1, #00b068)" d="M21.634 17.353h-0.932c-0.063 0-0.114-0.051-0.114-0.114v-0.932c0-0.063 0.051-0.114 0.114-0.114h0.932c0.063 0 0.114 0.051 0.114 0.114v0.932c0 0.063-0.051 0.114-0.114 0.114z"></path>
<path fill="#00b068" style="fill: var(--color1, #00b068)" d="M12.263 10.681h-0.352c-0.063 0-0.114-0.051-0.114-0.114v-0.352c0-0.063 0.051-0.114 0.114-0.114h0.352c0.063 0 0.114 0.051 0.114 0.114v0.352c0 0.063-0.051 0.114-0.114 0.114z"></path>
</symbol>
<symbol id="icon-decor-bg-faq-desk" viewBox="0 0 41 32">
<path fill="#00b068" style="fill: var(--color1, #00b068)" d="M8.070 16.467h0.916c0.062 0 0.112-0.050 0.112-0.112v-0.916c0-0.062-0.050-0.112-0.112-0.112h-0.916c-0.062 0-0.112 0.050-0.112 0.112v0.916c0 0.062 0.050 0.112 0.112 0.112z"></path>
<path fill="#00b068" style="fill: var(--color1, #00b068)" d="M18.003 1.762h0.916c0.062 0 0.112-0.050 0.112-0.112v-0.916c0-0.062-0.050-0.112-0.112-0.112h-0.916c-0.062 0-0.112 0.050-0.112 0.112v0.916c0 0.062 0.050 0.112 0.112 0.112z"></path>
<path fill="#00b068" style="fill: var(--color1, #00b068)" d="M15.983 29.61h1.486c0.062 0 0.112-0.050 0.112-0.112v-1.486c0-0.062-0.050-0.112-0.112-0.112h-1.486c-0.062 0-0.112 0.050-0.112 0.112v1.486c0 0.062 0.050 0.112 0.112 0.112z"></path>
<path fill="#00b068" style="fill: var(--color1, #00b068)" d="M3.186 19.956h1.486c0.062 0 0.112-0.050 0.112-0.112v-1.486c0-0.062-0.050-0.112-0.112-0.112h-1.486c-0.062 0-0.112 0.050-0.112 0.112v1.486c0 0.062 0.050 0.112 0.112 0.112z"></path>
<path fill="#00b068" style="fill: var(--color1, #00b068)" d="M16.544 9.386h0.346c0.062 0 0.112-0.050 0.112-0.112v-0.346c0-0.062-0.050-0.112-0.112-0.112h-0.346c-0.062 0-0.112 0.050-0.112 0.112v0.346c0 0.062 0.050 0.112 0.112 0.112z"></path>
<path fill="#00b068" style="fill: var(--color1, #00b068)" d="M0.716 11.663h0.346c0.062 0 0.112-0.050 0.112-0.112v-0.346c0-0.062-0.050-0.112-0.112-0.112h-0.346c-0.062 0-0.112 0.050-0.112 0.112v0.346c0 0.062 0.050 0.112 0.112 0.112z"></path>
<path fill="#00b068" style="fill: var(--color1, #00b068)" d="M26.938 27.947h0.346c0.062 0 0.112-0.050 0.112-0.112v-0.346c0-0.062-0.050-0.112-0.112-0.112h-0.346c-0.062 0-0.112 0.050-0.112 0.112v0.346c0 0.062 0.050 0.112 0.112 0.112z"></path>
<path fill="#00b068" style="fill: var(--color1, #00b068)" d="M39.622 31.427h0.346c0.062 0 0.112-0.050 0.112-0.112v-0.346c0-0.062-0.050-0.112-0.112-0.112h-0.346c-0.062 0-0.112 0.050-0.112 0.112v0.346c0 0.062 0.050 0.112 0.112 0.112z"></path>
<path fill="#00b068" style="fill: var(--color1, #00b068)" d="M20.024 17.589h0.916c0.062 0 0.112-0.050 0.112-0.112v-0.916c0-0.062-0.050-0.112-0.112-0.112h-0.916c-0.062 0-0.112 0.050-0.112 0.112v0.916c0 0.062 0.050 0.112 0.112 0.112z"></path>
<path fill="#00b068" style="fill: var(--color1, #00b068)" d="M24.626 6.804h0.346c0.062 0 0.112-0.050 0.112-0.112v-0.346c0-0.062-0.050-0.112-0.112-0.112h-0.346c-0.062 0-0.112 0.050-0.112 0.112v0.346c0 0.062 0.050 0.112 0.112 0.112z"></path>
</symbol>
  </defs>
</svg>
