<svg aria-hidden="true" style="position:absolute;width:0;height:0;overflow:hidden" xmlns="http://www.w3.org/2000/svg">
  <defs>
    <symbol id="logo" viewBox="0 0 107 32">
      <path fill="#ff6b0a" style="fill:var(--color1, #ff6b0a)" d="M106.667 0v32H59.536V0h47.131zM74.42 8.811v13.927l.001.044a.842.842 0 0 1-.001.087c-.007.08.015.128.107.115a.485.485 0 0 1 .066-.001l.033.001h3.582c.075.001.112.001.129-.017s.016-.051.014-.116l-.001-.078V8.83l-.001-.033a.485.485 0 0 1 .001-.066c.008-.082-.02-.125-.109-.115-.018.002-.036.001-.054.001l-.028-.001h-3.55l-.062-.001c-.065-.001-.098-.001-.114.015s-.016.049-.015.116l.001.064zm19.579-.194h-5.863c-1.954 0-3.908 0-5.86-.002h-.133c-.066-.003-.089.028-.084.089a.486.486 0 0 1 0 .054v3.398c0 .072-.001.107.017.124s.051.017.118.016H85.923c.12 0 .18 0 .209.03s.029.087.029.2v10.335c-.001.059-.001.09.014.106.017.018.052.017.127.017h3.571c.111 0 .166 0 .193-.028s.027-.08.027-.186V12.488l-.001-.059c-.001-.063-.001-.097.015-.114.018-.019.055-.018.133-.018h3.798c.162 0 .162 0 .164-.159V8.759c.001-.072.001-.108-.016-.126s-.053-.017-.123-.016L94 8.618z"/>
      <path fill="#010101" style="fill:var(--color2, #010101)" d="m47.132 0 12.403 16-12.403 16H0V0h47.132zm-26.38 13.662.215.174a.371.371 0 0 0 .106-.107.256.256 0 0 1 .02-.026c.254-.302.507-.606.76-.91.507-.606 1.012-1.212 1.518-1.82.101-.122.097-.177-.018-.276a12.617 12.617 0 0 0-.277-.233c-.803-.657-1.685-1.17-2.684-1.467a9.43 9.43 0 0 0-2.043-.353c-.905-.061-1.802-.031-2.691.174-3.112.716-5.434 3.292-5.707 6.594a7.795 7.795 0 0 0 .225 2.638c.519 1.96 1.645 3.461 3.434 4.45.975.539 2.03.823 3.14.912.94.076 1.87.018 2.788-.189 1.553-.35 2.925-1.056 4.146-2.067a.333.333 0 0 0 .137-.289c-.004-1.572-.004-3.145-.003-4.717v-1.179a.66.66 0 0 0-.003-.062c-.003-.046-.006-.092.006-.134.015-.049-.012-.077-.037-.104-.021-.022-.042-.044-.039-.077.007-.054-.03-.062-.073-.062h-6.556l-.038.001c-.026.001-.052.002-.077-.001-.066-.007-.087.026-.083.087a.657.657 0 0 1 .001.077l-.001.038V17.839l-.001.074c-.001.063-.002.096.014.112s.052.017.125.016H19.772c.072-.001.107-.001.124.016.016.016.015.048.014.11l-.001.078v.679c0 .308 0 .311-.279.445-.818.391-1.681.503-2.573.391-.991-.123-1.784-.591-2.365-1.401-.378-.527-.585-1.122-.662-1.763-.097-.818.002-1.605.373-2.348.448-.892 1.125-1.533 2.098-1.827.682-.207 1.373-.153 2.056-.003.619.135 1.159.437 1.657.816.182.138.359.281.539.427zm18.346-2.98c-1.528-1.39-3.348-2.052-5.229-2.066-.869.002-1.518.072-2.207.251-1.998.521-3.563 1.638-4.602 3.422-1.067 1.83-1.283 3.793-.687 5.812.667 2.257 2.089 3.9 4.29 4.815 1.69.701 3.44.795 5.206.332 2.051-.537 3.624-1.725 4.654-3.578.869-1.562 1.102-3.238.778-4.987-.291-1.572-1.017-2.919-2.203-4zm-8.437 3.528c.666-1.227 1.729-1.815 2.762-1.838 2.094-.005 3.464 1.173 3.837 2.806.226.984.125 1.94-.358 2.834-.57 1.05-1.458 1.661-2.654 1.797-1.156.133-2.165-.194-2.99-1.025a3.579 3.579 0 0 1-.983-1.914c-.172-.928-.066-1.827.386-2.66z"/>
    </symbol>
    <symbol id="javascript" viewBox="0 0 32 32">
      <path fill="#f7df1e" style="fill:var(--color3, #f7df1e)" d="M0 0h32v32H0V0z"/>
      <path style="fill:var(--color4, #000)" d="m8.414 26.741 2.449-1.482c.473.838.902 1.546 1.933 1.546.988 0 1.611-.387 1.611-1.89V14.69h3.007v10.267c0 3.115-1.826 4.532-4.489 4.532-2.406 0-3.802-1.246-4.511-2.75zm10.634-.322 2.448-1.418c.645 1.053 1.482 1.826 2.964 1.826 1.246 0 2.041-.623 2.041-1.482 0-1.031-.816-1.396-2.191-1.997l-.752-.323c-2.17-.923-3.609-2.083-3.609-4.532 0-2.256 1.718-3.974 4.404-3.974 1.912 0 3.287.666 4.274 2.406l-2.341 1.504c-.516-.924-1.074-1.289-1.933-1.289-.881 0-1.439.558-1.439 1.289 0 .902.558 1.268 1.847 1.826l.752.322c2.556 1.096 3.995 2.212 3.995 4.726 0 2.707-2.127 4.189-4.983 4.189-2.792 0-4.597-1.332-5.477-3.072z"/>
    </symbol>
  <symbol id="icon-user-benefits" viewBox="0 0 32 32">
<path fill="none" stroke="#00b068" style="stroke: var(--color1, #00b068)" stroke-linejoin="round" stroke-linecap="round" stroke-miterlimit="4" stroke-width="2.6667" d="M26.667 28c0-1.861 0-2.791-0.229-3.548-0.529-1.708-1.848-3.026-3.518-3.546l-0.038-0.010c-0.757-0.229-1.687-0.229-3.548-0.229h-6.667c-1.861 0-2.791 0-3.548 0.229-1.708 0.529-3.027 1.848-3.546 3.518l-0.010 0.038c-0.229 0.757-0.229 1.687-0.229 3.548M16 16c3.314 0 6-2.686 6-6s-2.686-6-6-6v0c-3.314 0-6 2.686-6 6s2.686 6 6 6v0z"></path>
</symbol>
<symbol id="icon-brush-benefits" viewBox="0 0 32 32">
<path fill="none" stroke="#00b068" style="stroke: var(--color1, #00b068)" stroke-linejoin="round" stroke-linecap="round" stroke-miterlimit="4" stroke-width="2.6667" d="M17.037 20l-5.037-5.036M2.667 29.333c2.667 0 6.144 0.453 7.967-1.368 0.845-0.845 1.367-2.011 1.367-3.3 0-2.577-2.089-4.667-4.667-4.667-1.289 0-2.455 0.522-3.3 1.367v0c-1.823 1.823 0 5.301-1.367 7.968z"></path>
<path fill="none" stroke="#00b068" style="stroke: var(--color1, #00b068)" stroke-linejoin="round" stroke-linecap="round" stroke-miterlimit="4" stroke-width="2.6667" d="M10.667 21.333c-0.655-0.656-0.983-0.984-1.168-1.327-0.201-0.366-0.32-0.802-0.32-1.267 0-0.5 0.138-0.968 0.377-1.368l-0.007 0.012c0.197-0.336 0.537-0.651 1.217-1.28l13.157-12.184c0.526-0.502 1.24-0.811 2.027-0.811 1.623 0 2.939 1.316 2.939 2.939 0 0.786-0.309 1.5-0.812 2.028l0.001-0.001-12.183 13.157c-0.631 0.68-0.945 1.020-1.28 1.217-0.388 0.233-0.856 0.371-1.357 0.371-0.464 0-0.901-0.119-1.281-0.327l0.014 0.007c-0.343-0.185-0.671-0.512-1.325-1.168z"></path>
</symbol>
<symbol id="icon-hourglass-benefits" viewBox="0 0 32 32">
<path fill="none" stroke="#00b068" style="stroke: var(--color1, #00b068)" stroke-linejoin="round" stroke-linecap="round" stroke-miterlimit="4" stroke-width="2.6667" d="M24.217 2.667h-16.435c-0.616 0-1.116 0.5-1.116 1.116v0c0 0 0 0 0 0 0 3.7 1.5 7.050 3.924 9.474l1.627 1.627c0.16 0.16 0.241 0.241 0.299 0.32 0.165 0.219 0.264 0.496 0.264 0.797s-0.099 0.577-0.267 0.8l0.002-0.003c-0.095 0.116-0.193 0.221-0.297 0.318l-0.002 0.002-1.627 1.625c-2.424 2.425-3.924 5.775-3.924 9.474 0 0 0 0 0 0v-0c0 0.616 0.5 1.116 1.116 1.116h16.435c0.616 0 1.116-0.5 1.116-1.116v0c0-0 0-0 0-0 0-3.7-1.5-7.050-3.924-9.474l-1.627-1.627c-0.16-0.16-0.241-0.241-0.299-0.32-0.165-0.219-0.264-0.496-0.264-0.797s0.099-0.577 0.267-0.8l-0.002 0.003c0.057-0.077 0.137-0.157 0.299-0.32l1.627-1.625c2.424-2.425 3.924-5.775 3.924-9.474 0-0 0-0 0-0v0c0-0.616-0.5-1.116-1.116-1.116v0z"></path>
</symbol>
<symbol id="icon-message-chat-circle-benefits" viewBox="0 0 32 32">
<path fill="none" stroke="#00b068" style="stroke: var(--color1, #00b068)" stroke-linejoin="round" stroke-linecap="round" stroke-miterlimit="4" stroke-width="2.6667" d="M8.125 14.972c-0.080-0.49-0.125-1.056-0.125-1.631 0-0.003 0-0.005 0-0.008v0c0-5.891 4.807-10.667 10.737-10.667 5.929 0 10.736 4.776 10.736 10.667 0 1.331-0.245 2.605-0.693 3.78-0.093 0.243-0.14 0.365-0.16 0.46-0.019 0.077-0.031 0.166-0.032 0.258v0.001c-0.003 0.097 0.011 0.204 0.037 0.419l0.537 4.36c0.057 0.473 0.087 0.709 0.008 0.88-0.070 0.151-0.19 0.269-0.338 0.334l-0.004 0.002c-0.173 0.073-0.408 0.040-0.88-0.029l-4.245-0.623c-0.223-0.032-0.333-0.049-0.435-0.048-0.003-0-0.006-0-0.009-0-0.091 0-0.18 0.010-0.266 0.030l0.008-0.002c-0.099 0.021-0.225 0.068-0.477 0.163-1.128 0.432-2.433 0.683-3.796 0.683-0.575 0-1.14-0.045-1.692-0.13l0.061 0.008M10.176 29.333c3.953 0 7.157-3.283 7.157-7.333s-3.204-7.333-7.157-7.333c-3.953 0-7.159 3.283-7.159 7.333 0 0.813 0.129 1.597 0.369 2.329 0.1 0.309 0.151 0.464 0.168 0.569 0.017 0.111 0.020 0.173 0.013 0.284-0.007 0.107-0.033 0.227-0.087 0.468l-0.815 3.683 3.993-0.545c0.217-0.029 0.327-0.045 0.421-0.044 0.101 0 0.153 0.007 0.253 0.027 0.093 0.017 0.231 0.067 0.508 0.164 0.693 0.253 1.493 0.399 2.328 0.399 0.002 0 0.004 0 0.006 0h-0z"></path>
</symbol>


<symbol id="icon-vector-down-faq" viewBox="0 0 50 32">
<path stroke-linejoin="miter" stroke-linecap="round" stroke-miterlimit="4" stroke-width="7.1111" d="M46.222 3.556l-21.333 21.333-21.333-21.333"></path>
</symbol>
<symbol id="icon-vector-up-faq" viewBox="0 0 50 32">
<path stroke-linejoin="miter" stroke-linecap="round" stroke-miterlimit="4" stroke-width="7.1111" d="M46.222 28.444l-21.333-21.333-21.333 21.333"></path>
</symbol>


<symbol id="icon-icon-work" viewBox="0 0 32 32">
<path fill="none" stroke="#00b068" style="stroke: var(--color1, #00b068)" stroke-linejoin="round" stroke-linecap="round" stroke-miterlimit="4" stroke-width="1.3333" d="M20 14c0 2.209-1.791 4-4 4s-4-1.791-4-4v0c0-2.209 1.791-4 4-4s4 1.791 4 4v0 0z"></path>
<path fill="none" stroke="#00b068" style="stroke: var(--color1, #00b068)" stroke-linejoin="round" stroke-linecap="round" stroke-miterlimit="4" stroke-width="1.3333" d="M26 14c0 9.523-10 15-10 15s-10-5.477-10-15c0-5.523 4.477-10 10-10s10 4.477 10 10v0 0z"></path>
</symbol>
<symbol id="icon-message-work" viewBox="0 0 44 32">
<path fill="none" stroke="#00b068" style="stroke: var(--color1, #00b068)" stroke-linejoin="round" stroke-linecap="round" stroke-miterlimit="4" stroke-width="2" d="M41.5 5.5v21c0 2.485-2.015 4.5-4.5 4.5v0h-30c-2.485 0-4.5-2.015-4.5-4.5v0-21M41.5 5.5c0-2.485-2.015-4.5-4.5-4.5v0h-30c-2.485 0-4.5 2.015-4.5 4.5v0M41.5 5.5v0.486c0 0 0 0 0 0 0 1.612-0.847 3.026-2.121 3.82l-0.019 0.011-15 9.23c-0.671 0.42-1.487 0.669-2.36 0.669s-1.689-0.249-2.379-0.68l0.019 0.011-15-9.228c-1.293-0.806-2.14-2.22-2.14-3.832 0-0 0-0 0-0.001v0-0.488"></path>
</symbol>
<symbol id="icon-phone-work" viewBox="0 0 32 32">
<path fill="none" stroke="#00b068" style="stroke: var(--color1, #00b068)" stroke-linejoin="round" stroke-linecap="round" stroke-miterlimit="4" stroke-width="1.4545" d="M1.818 8.364c0 12.049 9.769 21.818 21.818 21.818h3.273c1.807 0 3.273-1.465 3.273-3.273v0-1.996c0-0.751-0.511-1.405-1.239-1.587l-6.433-1.609c-0.64-0.16-1.312 0.080-1.706 0.607l-1.411 1.881c-0.41 0.547-1.119 0.788-1.76 0.553-4.832-1.812-8.578-5.557-10.35-10.269l-0.040-0.121c-0.236-0.641 0.006-1.35 0.553-1.76l1.881-1.411c0.528-0.394 0.767-1.068 0.607-1.706l-1.609-6.433c-0.184-0.717-0.824-1.239-1.587-1.239h-1.996c-1.807 0-3.273 1.465-3.273 3.273v0 3.273z"></path>
</symbol>



<symbol id="icon-icon-arrow-project" viewBox="0 0 32 32">
<path fill="none" stroke="#00b068" style="stroke: var(--color1, #00b068)" stroke-linejoin="round" stroke-linecap="round" stroke-miterlimit="4" stroke-width="2.6667" d="M6.333 25.667l19.333-19.333M25.667 6.333h-18M25.667 6.333v18"></path>
</symbol>


<symbol id="icon-icon-arrow-hero" viewBox="0 0 60 32">
<path fill="#00b068" style="fill: var(--color1, #00b068)" d="M2 14c-1.105 0-2 0.895-2 2s0.895 2 2 2v0-4zM59.414 17.414c0.362-0.362 0.586-0.862 0.586-1.414s-0.224-1.052-0.586-1.414l-12.728-12.728c-0.364-0.377-0.874-0.611-1.439-0.611-1.105 0-2 0.895-2 2 0 0.565 0.234 1.074 0.61 1.438l0.001 0.001 11.314 11.314-11.314 11.314c-0.347 0.359-0.561 0.849-0.561 1.389 0 1.105 0.895 2 2 2 0.54 0 1.030-0.214 1.39-0.562l-0.001 0.001 12.728-12.728zM2 18h56v-4h-56v4z"></path>
</symbol>
  </defs>
</svg>
